<?xml version="1.0" encoding="UTF-8"?>
<svg id="Layer_1" data-name="Layer 1" xmlns="http://www.w3.org/2000/svg" viewBox="0 0 10868.44 2675.24">
  <defs>
    <style>
      .cls-1 {
        fill: #524b5a;
      }

      .cls-2 {
        fill: #f7a69d;
      }

      .cls-3 {
        fill: #fafbf6;
      }

      .cls-4 {
        fill: #240c33;
      }

      .cls-5 {
        fill: #a194ad;
      }

      .cls-6 {
        font-family: MyriadPro-Regular, 'Myriad Pro';
        font-size: 12px;
      }

      .cls-7 {
        fill: #61596a;
      }

      .cls-8 {
        fill: #f7f8eb;
      }

      .cls-9 {
        letter-spacing: -.01em;
      }

      .cls-10 {
        letter-spacing: -.01em;
      }

      .cls-11 {
        fill: #ffc18c;
      }
    </style>
  </defs>
  <path class="cls-4" d="M648.03,1783.58c56.14,155.83,31.48,308.44,52.56,472.25l1.34.69c34.83,134.28,76.6,161.67,70.34,107.2-2.5-21.78.85-66.11,5.11-138.25,14.39-243.91,218.07-456.61,407.84-608.4-128.64,5.14-256.44,4.22-379.36-38.3-33.38,29.93-61.1,65.99-86.12,103.05-14.55,21.55-28.39,44.09-45.11,64.04,14.62-66.52,68.11-123.73,111.74-173.81-67-23.92-175.86-66.7-212.74-129.98,22.91-18.23,46.89-25.6,74.97-32.71-6.21-1.82-12.47-3.65-18.52-5.97-15.74-6.05-37.64-15.42-44.67-31.63-.61-15.05,78.15-103.89,92.32-121.77-34.17,14.51-82.13,51.11-112.27,59.83-4.14,1.2-4.57.92-8.17-1.01l-.22-3.59c17.41-28.14,85.23-56.54,115.68-69.07-18.59-38.94-37.29-78.68-51.46-119.46-47.63-137.02-64.88-295-56.54-439.41,6.69-115.99,28.38-226.85,68.3-335.86,17.22-47.02,38.81-100.38,76.83-134.23,44.94,69.3,85.58,141.47,131.6,210.12,27.37,40.8,54.99,81.43,82.87,121.88,17.77,25.64,37.23,50.56,52.47,77.82,68.33-96.18,145.48-191.59,249.8-250.99,25.94-14.78,53.57-26.17,80.96-37.92-13.01-40.97-20.66-84.08-29.99-126-14.79-66.47-31.68-134.09-37.61-202.06,24.35,7.77,48.04,17.21,71.07,28.3,168.27,80.5,303.14,207.59,410.49,358.76,31.29,44.07,70.31,105.71,88.13,156.45,62.45,21.27,121.79,79.88,162.2,130.9,0,0,1.51,2.58.68.86h0c7.37,15.26,40.49,74.4,45,90.8,34.17-65.02,130.12-118.17,197.95-139.11,9.72-3,19.88-6.42,30.13-5.42,2.65,3.61,1.86,3.35,1.39,7.52-20.12,16.57-52.66,24.99-76.46,36.21-60.12,28.33-104.96,69.65-150.07,117.36,4.4,16.25,7.55,32.56,10.56,49.12,16.45,6.85,31.75,16.26,46.83,25.69l2.54-.6c57.75-13.84,166.09-56.08,222.27-30.02l1.68,2.78c-2.8,4.12-10.36,6.06-15.12,7.06-18.88,3.93-39.1,2.39-58.3,4.91-40.63,5.33-81.86,15.26-121.28,26.29,1.72,13.59,1.79,25.49-.5,39.09l-5,26.87c-8.44,36.54-18.74,72.14-32.64,107.02-6.98,17.51-13.68,35.2-21.4,52.4l-5.41,13.54c-8.29,13.84-22.74,32.17-27.6,47.1-12,19.48-22.92,39.56-35.99,58.36-94.72,136.21-221.76,231.25-371.38,300.59-38.43,17.81-82.3,28.95-117.32,46.05-.49,32.84-.54,67.27,3.68,99.84,4.06,31.28,12.77,62.03,19.86,92.74,5.82,25.22,10.31,50.8,15.04,76.24l7.6,37.25c16.37,70.1,25.28,156.07,28.02,228.04,2.09.16,4.17.37,6.25.64,2.08.27,4.15.59,6.2.96,2.06.37,4.11.79,6.15,1.26,2.04.47,4.07,1,6.08,1.57,2.01.57,4.01,1.2,6,1.87,1.98.67,3.95,1.4,5.89,2.18,1.94.77,3.87,1.59,5.77,2.46,1.9.87,3.79,1.79,5.64,2.76,1.86.97,3.69,1.98,5.5,3.03,1.81,1.06,3.59,2.16,5.34,3.31,1.75,1.15,3.47,2.34,5.16,3.57,1.69,1.23,3.35,2.51,4.98,3.82,1.63,1.32,3.22,2.67,4.78,4.07,1.56,1.4,3.08,2.83,4.57,4.3,1.49,1.47,2.94,2.98,4.35,4.53,1.41,1.55,2.78,3.13,4.12,4.74,33.08,39.38,40.45,96.24,36,145.84-6.5,72.44-35.03,131.36-84.35,183.9,28.27-.7,60.02-1.76,82.47,18.8,8.47,7.76,13.76,18.29,14.36,29.85.17,3.15.2,7.23-2.16,9.52-19.77,19.25-84.05,24.53-112.2,28.85,2.94,15.42,12.76,47.12,3.2,60.64-4.46,6.3-12.18,9.41-19.65,10.07-18.49,1.62-38.39-3.68-52.14-16.45-18.8-17.48-28.37-49.74-34.6-73.91l-31.74,8.67c6.86,22.23,31.61,81.02,23.6,100.6-1.92,4.71-6.37,7.37-11.13,8.5-20.6,4.91-47.73-4.8-64.56-16.4-21.42-14.77-36.72-48.33-47.6-71.37-15.02,3.08-30,6.45-45.28,7.8,24.97,8.94,47.38,22.21,59.13,47.34,2.81,6.01,4.13,12.77,1.84,19.19-2.68,7.51-8.94,12.76-16.06,15.9-21.88,9.65-52.37,9.75-76.19,12.24-111.98,11.73-240.3,15.11-346.13-29.25-62.42-26.17-93.71-59.16-135.7-110.25-45-4.84-85.7-33.65-113.73-68.09-25.76-31.64-42.5-69.76-55.28-108.2-3.36-13.11-6.18-26.18-8.69-39.49-19.27-53-19.1-123.31-24.4-179.77-4.78-50.99-11-100.81-20.56-151.18-19.84-104.58-61.92-209.64-153.4-271.31-46.03-31.04-116.3-56.5-172.43-45.06-24.04,4.9-46.74,15.97-60.2,37.34-27.56,43.76,1.2,88.15,10.36,132.12,5.17,24.84,3.8,52.46-11.03,73.88-.67.98-1.36,1.95-2.08,2.9-.72.95-1.46,1.87-2.23,2.78-.77.91-1.55,1.8-2.37,2.67-.81.87-1.64,1.71-2.5,2.54-.86.83-1.73,1.63-2.63,2.41-.9.78-1.81,1.53-2.75,2.27-.94.73-1.89,1.44-2.86,2.12-.97.68-1.96,1.34-2.97,1.97-1.01.63-2.03,1.24-3.07,1.82-1.04.58-2.09,1.13-3.16,1.66-1.07.53-2.15,1.02-3.24,1.49-1.09.47-2.2.91-3.31,1.32-1.11.41-2.24.8-3.37,1.15-1.13.35-2.28.68-3.43.98-1.15.29-2.31.56-3.47.79-1.16.24-2.33.44-3.51.62-25.1,3.75-48.27-6.92-67.98-21.54-40.23-29.85-60.48-83.16-67.37-131.21-9.71-67.73,4.66-144.88,46.67-199.84,2.51-3.3,5.1-6.54,7.77-9.72,2.67-3.18,5.42-6.28,8.24-9.32,2.83-3.04,5.73-6.01,8.7-8.9,2.97-2.89,6.02-5.71,9.13-8.45,3.11-2.74,6.3-5.4,9.54-7.98,3.25-2.58,6.56-5.08,9.93-7.5,3.37-2.42,6.8-4.75,10.29-6.99,3.49-2.25,7.03-4.4,10.63-6.47,3.6-2.07,7.24-4.04,10.94-5.93,3.7-1.88,7.44-3.67,11.22-5.37,3.79-1.7,7.61-3.3,11.48-4.8,3.87-1.51,7.77-2.91,11.7-4.22,3.94-1.31,7.9-2.52,11.9-3.64,4-1.11,8.02-2.12,12.07-3.04,4.05-.91,8.12-1.72,12.2-2.42,4.09-.71,8.19-1.31,12.31-1.82,104.2-13.66,196.31,19.04,278.35,82.51,58.95,45.6,102.78,100.93,134.06,168.61,6.76,14.63,12.71,29.22,17.96,43.78"/>
  <path class="cls-7" d="M1445.37,373.91c1.8,5.44,3.52,10.9,5.18,16.39-10.12,5.28-19.7,11.59-29.38,17.62l-2.1-.59c6.83-11.91,17.5-22.82,26.3-33.42Z"/>
  <path class="cls-5" d="M1972.67,676.33s-11.86,10.13,0,0"/>
  <path class="cls-5" d="M1997.81,720.35l-25.14-44.03"/>
  <path class="cls-11" d="M1682.3,1090.71c6.16,0,7.89-1.01,12.64,3.17,1.36,4.37,1.98,7.6,1.42,12.2-1.69,14.08-9.92,27.2-21.3,35.55-10.17,7.46-20.29,5.78-32.11,4.26-7.61-3.56-12.2-5.49-16.5-12.77,0-4.13.22-6.5,2.18-10.26,8.07-15.48,37.24-27.81,53.68-32.15Z"/>
  <path class="cls-3" d="M1573.13,901.14c2-.25,4.22.2,6.22.4,4.73,5.34,6.12,13.2,8.06,19.96-39.34,7.42-73.66,24.48-104.16,50.27-2.17,2.03-3.06,2.08-5.88,2.73-2.2-2.26-3.02-2.5-3.71-5.84-1.22-5.93.42-11.96,4.14-16.73,22.45-28.74,59.93-45.82,95.33-50.8Z"/>
  <path class="cls-7" d="M1594.03,2483.54c10.76-.64,21.7-1.55,32.48-.93,17.88,1.02,42.26,5.86,54.65,19.74.52,2.83,1.5,4.58.1,7.29-4.49,8.72-17.24,10.24-25.89,12.46-23.81,4.4-47.66,8.6-70.64,16.34-.81-15.84-5.52-31.06-2.39-46.9,4-5.18,5.81-5.58,11.7-8Z"/>
  <path class="cls-7" d="M1459.35,414.56c8.04,8,12.14,39.94,14.94,51.68-43.5,1.09-85.38,9.42-127.76,18.46-3.54.92-6,1.2-9.64.85,13.94-20.59,97.97-59.5,122.46-71Z"/>
  <path class="cls-3" d="M1343.53,1776.2c18.31-31.5,46.86-69.72,81.88-83.74,11.09-4.44,27.15-8.16,38.5-3.09,14.23,20.88,4.67,108.69,1.8,135.36-19.75-.67-38.72-1.22-57.29,6.77l-2.93-6.47c-2.27,12.06-1.91,33.81-12.14,40.85-8.48.02-12.84-4.08-19.18-9.22l-.61-1.07,9.03-2.12c-9.49-.75-17.66-.69-26.97,1.38-2.63-26.44-6.67-52.67-12.09-78.68Z"/>
  <path class="cls-4" d="M1382.59,1853.49c4.51,1.06,2.31,1.33,6.56-1.1,2.18-8.03,2.29-15.8,2.78-24.04.8-13.52,2.5-45.36,12.77-54.47l3.1,1.38c5.14,16.91.78,32.85-2.32,49.77-2.27,12.06-1.91,33.81-12.14,40.85-8.48.02-12.84-4.08-19.18-9.22l-.61-1.07,9.03-2.12Z"/>
  <path class="cls-7" d="M1567.55,2113.09c11.57,1.98,23.48,7.7,33.68,13.47,26.28,14.87,40.43,37.98,48.01,66.48,20.97,78.8,4.8,163.85-35.4,233.49-9.37,16.2-20.96,30.73-33.08,44.92-1.69-47.73.02-95.64-1.06-143.41-1.62-71.88-6.52-143.3-12.15-214.94Z"/>
  <path class="cls-2" d="M1385.77,179.43c23.32,8.66,59.45,47.34,77.66,66.03,105.21,107.98,158.14,171.52,224.57,308.62l-20.18,10.51c-17.33-16.2-39.42-26.48-61.2-35.2-2.65-.87-20.09-6.41-20.87-8.08-6.38-13.68,2.31-20.72-13.2-35.9-20.88-20.42-58.6-18.58-85.8-19.19-4.2-18.68-9.2-37.12-14.18-55.59,10.42-2.93,20.88-5.87,31.01-9.69,15.35-5.79,35.43-13.96,41.92-30.5,1.8-4.59,1.73-8.13-.18-12.67-11.33-2.88-62.63,19.63-77.48,24.84-1.89-5.81-12.52-34.08-8.93-38.6,3.8-4.78,7.97-2.25,10.33-9.44-4.18-5.83-8.59-6.91-15.01-9.93-20.56-49.74-43.58-97.54-68.46-145.22Z"/>
  <path class="cls-7" d="M1405.49,1825.05l2.93,6.47c17.06,3.63,39.22-1.65,56.68-3.47-32.86,171.64-51.92,352.35-23.17,526.02,9.42,56.9,24.89,111.23,38.71,167.05-10.24,3.86-20.77,7.42-30.82,11.72-15.17-67.16-29.08-133.63-40.01-201.64-15.4-95.85-24.75-193.75-34.99-290.28-4.81-45.35-8.98-90.53-12.62-135.98-.84-10.4-3.75-20.8-4.11-31.18-.18-5.27,1.01-9.3,3.04-14.1,4.45-2.18,8.18-2.45,13.04-2.97,6.34,5.14,10.7,9.24,19.18,9.22,10.23-7.04,9.87-28.8,12.14-40.85Z"/>
  <path class="cls-7" d="M1275.75,57.58c38.87,16.46,74.36,39.12,109.54,62.18,30.46,19.97,61.31,39.78,90.06,62.18,70.6,55.02,135.7,122.16,190.52,192.8,41.46,53.43,77.91,113.65,119.47,165.11-26.59.02-53.67.14-79,9.12-12.62-36.59-29.5-69.89-48.72-103.32-61.71-115.68-180.79-241.15-299.37-298.47,16.26,57.82,42.02,113.84,64.11,169.67-28.73-1.79-52.46-.58-80.48,6.62-15.42-89.93-44.54-177.43-66.12-265.9Z"/>
  <path class="cls-7" d="M1484.89,1769.66c10.82,9.11,21.1,90.87,23.37,106.52,5.93,40.87,13.64,81.48,19.26,122.39,9.86,76.39,17.21,153.02,22.06,229.89,7.48,124.1-2.12,250.04,28.12,371.78-12.49,1.88-23.05,1.82-35.43-.06-1.89-.85-2.36-.91-4.08-2.55-17.99-17.1-32.88-85.94-39.66-112.29-13.01-50.59-27.12-101.46-35.22-153.12-25.62-163.38-6.14-281.78,11.66-442.74,4.4-39.8,6.57-79.92,9.92-119.82Z"/>
  <path class="cls-7" d="M237.35,1516.9c65.2-7.33,134.74,13.08,190.33,46.23,177.58,105.91,225.31,281.07,236.94,474.39,5.78,96.14,4.75,193.21,29.14,287.05,11.04,42.48,29.64,89.38,69.35,112.7,4.13,21.38,10.3,41.88,17.75,62.32-17.14-7.26-32.45-16.48-46.69-28.52-86.09-72.75-96.35-209.68-104.63-314.59-12.87-101.82-17.04-180.98-51.62-280.16-32.07-91.96-89.63-177.22-180.08-220.16-53.79-25.54-122.48-42.26-180.4-21.03-2.76,1-5.49,2.1-8.17,3.3-2.68,1.2-5.32,2.5-7.9,3.89-2.59,1.39-5.12,2.88-7.6,4.46-2.48,1.58-4.89,3.25-7.25,5-2.36,1.76-4.64,3.6-6.86,5.52-2.22,1.93-4.37,3.93-6.44,6.02-2.07,2.08-4.07,4.24-5.98,6.47-1.91,2.23-3.74,4.53-5.49,6.89-58.47,79.92,21.8,151.5-3.97,203.82-4.01,8.14-10.5,14.5-19.36,16.99-11.88,3.35-23.2.46-33.4-6.08-32.29-20.7-51.32-68.79-58.61-104.7-12.2-60.07-6.28-128.27,28.69-180.18,43.14-64.02,91.78-75.67,162.23-89.64Z"/>
  <path class="cls-3" d="M1751.26,559.25c46.67-4.64,87.85,15.85,125.32,41.99,2.22,1.55,4.42,3.14,6.6,4.75,2.18,1.61,4.34,3.25,6.48,4.91,2.14,1.66,4.26,3.35,6.36,5.07,2.1,1.71,4.18,3.46,6.23,5.22,2.06,1.77,4.09,3.56,6.1,5.38,2.01,1.82,4,3.66,5.96,5.52,1.97,1.87,3.91,3.76,5.83,5.68,1.92,1.91,3.81,3.85,5.68,5.81,1.87,1.96,3.71,3.95,5.54,5.96,1.82,2.01,3.62,4.04,5.39,6.09,1.77,2.05,3.52,4.13,5.24,6.22,1.72,2.1,3.41,4.21,5.08,6.35,1.67,2.14,3.31,4.3,4.92,6.47,1.61,2.18,3.2,4.38,4.76,6.59,1.56,2.22,3.1,4.45,4.6,6.71,1.5,2.26,2.98,4.53,4.43,6.82,1.45,2.29,2.87,4.6,4.26,6.92,1.39,2.33,2.75,4.67,4.09,7.03,1.33,2.36,2.64,4.74,3.91,7.13,1.27,2.39,2.52,4.8,3.74,7.22,1.22,2.42,2.4,4.86,3.56,7.31,1.15,2.45,2.28,4.92,3.38,7.4,1.09,2.48,2.16,4.97,3.19,7.48,1.03,2.51,2.04,5.03,3,7.56.97,2.53,1.91,5.07,2.82,7.63.91,2.55,1.78,5.12,2.62,7.7.85,2.58,1.66,5.16,2.44,7.76.78,2.59,1.53,5.2,2.24,7.82.72,2.61,1.4,5.24,2.05,7.87.65,2.63,1.27,5.27,1.85,7.92.59,2.65,1.14,5.3,1.66,7.96.52,2.66,1.01,5.33,1.46,8,12.44,71.52.11,156.04-42.4,216.17-28.32,40.06-68.8,65.56-117.03,73.93-49.88,6.15-109.42-17.64-148.33-48-70.6-55.08-105.11-138.48-115.98-225.12-8.76-69.84,5.86-151.42,50.08-207.86,28.23-36.04,67.36-59.62,112.85-65.37Z"/>
  <path class="cls-4" d="M1749.31,576.96c44.5-5.52,90.65,21.71,124.86,46.98,68.16,50.34,108.82,117.3,121.11,201.36,9.88,67.57-.19,142.64-42.36,198.18-25.34,33.38-58.28,56.62-100.26,62.46-44.77,3.99-90.47-9.26-127.5-34.45-63.44-43.17-105.05-121.96-118.94-196-12.9-68.72-.08-151.9,40.31-209.99,25-35.96,59.62-60.56,102.79-68.54Z"/>
  <path class="cls-7" d="M1743.01,591.08c18.29-1.23,34.51.78,51.44,8.22,16.85,7.41,31.87,19.34,46.14,30.75,47.9,38.27,83.64,82.56,104.83,140.49,26.99,73.79,30.95,158.04-2.57,230.22,1.24-25.34,3.83-50.64,5.94-75.92-.26-20.17-1.72-39.9-5.1-59.8-.78-4.83-1.68-9.63-2.7-14.42-1.02-4.78-2.16-9.54-3.42-14.26-1.26-4.73-2.63-9.42-4.12-14.08-1.49-4.66-3.09-9.28-4.81-13.86-1.72-4.58-3.55-9.11-5.49-13.6-1.94-4.49-4-8.93-6.16-13.31-2.16-4.39-4.43-8.72-6.82-12.99-2.38-4.27-4.86-8.48-7.45-12.64-2.59-4.15-5.28-8.23-8.07-12.25-2.79-4.02-5.68-7.96-8.66-11.84-2.99-3.87-6.07-7.67-9.24-11.39-3.17-3.72-6.44-7.36-9.8-10.92-3.35-3.56-6.8-7.03-10.32-10.42-3.53-3.39-7.14-6.69-10.83-9.9-3.69-3.21-7.46-6.32-11.3-9.34-3.85-3.02-7.76-5.95-11.76-8.77-25.14-17.49-67.83-37.96-99.26-34.58-20.96,2.25-40.33,9.5-60.94,13.08.24-4.49,1.52-6.3,4.02-9.98,17.11-25.2,46.85-43.45,76.45-48.5Z"/>
  <path class="cls-8" d="M1705.92,648.94c12.34-1.41,24.21-.44,36.28,2.26,61.02,13.64,112.72,60.89,145.05,112.75,35.68,57.24,52.82,132.73,43.08,199.62-3.44,23.68-11.03,46.48-16.36,69.78-1.83,1.89-3.64,3.7-5.61,5.44-30.22,26.79-62.09,28.16-99.97,25.47.96-1.45,1.94-2.9,2.84-4.39,14.39-24.13,12.36-48.33,5.52-74.34-8.8-22.92-23.2-47.73-44.42-61.17-8.4-5.32-18.53-8.64-28.45-6.12-9.82,2.5-17.11,10.04-21.59,18.84-14.62,28.7-2.51,67.62,6.35,96.3-49.48-38.07-86.03-99.76-102.26-159.49-14.8-54.47-16.42-132.45,13.65-182.44,14.87-24.72,38.9-36.22,65.89-42.52Z"/>
  <path class="cls-3" d="M1193,821.45c74-1.67,150.74,26.24,206.53,74.78,62.66,54.51,96.02,132.34,101.58,214.29,4.97,73.24-14.05,147.73-63.51,203.35-49.84,56.05-128.62,90.56-203,94.97-1.29.11-2.59.23-3.88.33-4.85.32-9.7.52-14.56.6-4.86.08-9.71.04-14.57-.12-4.85-.16-9.7-.44-14.54-.84-4.84-.4-9.67-.91-14.49-1.55-4.81-.64-9.61-1.39-14.39-2.26-4.78-.87-9.53-1.86-14.26-2.96-4.73-1.11-9.43-2.33-14.1-3.67-4.67-1.34-9.31-2.79-13.9-4.35-4.6-1.57-9.15-3.25-13.67-5.04-4.52-1.79-8.99-3.69-13.41-5.7-4.42-2.01-8.79-4.13-13.11-6.36-4.32-2.22-8.58-4.55-12.78-6.99-4.2-2.44-8.34-4.97-12.42-7.61-4.08-2.64-8.09-5.38-12.03-8.22-3.94-2.84-7.81-5.77-11.61-8.8-3.8-3.03-7.52-6.15-11.16-9.36-61.42-54.83-90.38-125.82-94.58-207.38-3.97-77.32,17.78-160.14,70.82-218.42,52.4-57.57,124.57-85.35,201.03-88.71Z"/>
  <path class="cls-4" d="M1169.51,841.28c4.16-.43,8.33-.77,12.5-1.02,4.18-.25,8.36-.4,12.54-.46,4.18-.06,8.37-.03,12.55.1,4.18.13,8.36.34,12.53.66,4.17.31,8.33.72,12.49,1.22,4.15.5,8.29,1.09,12.42,1.77,4.13.68,8.24,1.46,12.33,2.32,4.09.86,8.16,1.82,12.21,2.87,4.05,1.05,8.08,2.19,12.08,3.41,4,1.23,7.97,2.55,11.91,3.95,3.94,1.41,7.85,2.9,11.72,4.48,3.87,1.58,7.71,3.24,11.51,4.99s7.56,3.58,11.28,5.5c3.72,1.92,7.39,3.92,11.02,6,3.63,2.08,7.21,4.24,10.74,6.48,3.53,2.24,7.01,4.56,10.44,6.96,60.88,42.06,108.94,111.44,121.7,184.86,11.6,66.79-1.41,148.87-41.38,204.61-45.48,63.41-114.34,95.59-189.55,108.23-73.11,6.56-149.8-8.22-209.3-53.46-58.31-44.32-93.18-110.73-102.41-182.61-9.75-75.9,9.13-156.16,56.53-216.89,43.85-56.17,104.35-85.1,174.14-93.96Z"/>
  <path class="cls-7" d="M1167.94,855.33c27.6-2.78,58.88-1.27,85.93,4.58,63.39,13.72,131.21,54.62,166.4,109.83-20.15-13.99-37.37-34.71-56.18-50.77-47.33-40.4-103.98-60.4-166.45-55.26-45.58,3.75-90.03,23.78-119.72,59.12-41.64,49.54-60.75,124.37-54.55,188.08,7.33,75.35,41.88,139.04,99.77,187.06,70.06,51.12,126.69,54.44,210.48,50.17-26.7,9.68-53.48,19.13-81.63,23.6-66.8,10.63-142.82-4.9-197.7-45.32-56.48-41.61-92.05-105.81-102.14-174.68-9.93-67.81,7.93-148.04,49.35-203.09,43.58-57.9,95.6-83.64,166.44-93.32Z"/>
  <path class="cls-8" d="M1207.26,877.37c8.59-.64,17.52-.3,26.08.63,66.6,7.29,127.94,47.78,168.78,99.65,44.39,56.36,62.44,124.2,54.23,194.83-3.1-13.23-5.86-26.67-10.74-39.38-7.65-19.96-20.95-46.83-41.73-55.34-.86-.35-1.74-.67-2.63-.93-.89-.26-1.8-.48-2.71-.65-.92-.17-1.84-.29-2.77-.37-.93-.08-1.86-.1-2.79-.08-.93.02-1.86.09-2.78.21-.93.12-1.84.28-2.75.5-.9.21-1.8.47-2.68.78-.88.31-1.74.66-2.58,1.05-12.82,5.93-20.6,19.79-24.92,32.62-11.85,35.14-8.74,85.02,7.95,118.22,11.22,22.3,25.45,32.29,48.36,39.78l-11.53,13.06c-28.17,28.35-57.03,43.83-97.1,47.91-65.18,6.64-128.57-13.62-179.14-55.01-50.04-40.95-80.15-98.93-86.3-163.18-5.82-60.78,8.78-128.11,48.56-175.75,31.2-37.38,71.56-54.14,119.18-58.56Z"/>
  <path class="cls-7" d="M2030.91,855.04c15.72,6.04,26.19,12.82,36.78,26.13-1.59,21.12-5.79,42.14-10.72,62.7-1.46,6.14-3,12.25-4.61,18.36-1.61,6.1-3.3,12.18-5.06,18.23-1.76,6.06-3.6,12.09-5.51,18.1-1.91,6.01-3.9,12-5.96,17.96-2.06,5.96-4.19,11.9-6.4,17.81-2.21,5.91-4.49,11.79-6.84,17.64-2.35,5.85-4.78,11.68-7.28,17.47-2.5,5.79-5.07,11.55-7.71,17.28-2.64,5.73-5.35,11.43-8.14,17.09-2.78,5.66-5.63,11.29-8.56,16.88-2.92,5.59-5.91,11.15-8.97,16.66-3.06,5.52-6.19,11-9.38,16.44-3.19,5.44-6.46,10.84-9.78,16.2-3.33,5.36-6.72,10.68-10.18,15.95-3.46,5.27-6.99,10.51-10.58,15.69-3.59,5.19-7.24,10.33-10.96,15.43-3.72,5.1-7.5,10.15-11.34,15.15-3.85,5-7.75,9.96-11.72,14.86s-7.99,9.76-12.08,14.57c-4.09,4.81-8.23,9.56-12.44,14.27-4.2,4.7-8.46,9.35-12.78,13.95-4.32,4.6-8.69,9.14-13.12,13.63-4.43,4.49-8.92,8.92-13.46,13.3-4.54,4.38-9.14,8.7-13.79,12.96-4.65,4.27-9.35,8.47-14.1,12.62-4.75,4.15-9.56,8.24-14.41,12.27-4.86,4.03-9.76,7.99-14.71,11.9-4.95,3.91-9.95,7.75-15,11.54-5.05,3.78-10.14,7.5-15.28,11.16-5.14,3.66-10.32,7.25-15.55,10.78-5.23,3.53-10.5,6.99-15.82,10.39-5.31,3.4-10.67,6.73-16.07,10-53.86,32.74-111.19,57.7-170.17,79.67-221.62,82.54-473.77,109.68-705.04,53.17,40.95-33.24,87.55-68.32,135.18-91.32,16.47-7.95,33.49-16.48,50.28-23.58,12.6-5.34,27.51-8.8,39.04-16.24,4.94-3.19,6.06-5,7.28-10.62-3.75-2.99-3.85-2.91-8.44-2.59-72.21,4.93-193.38,82.65-240.95,137.9-65.75-26.44-130.32-51.94-190.3-90.21,25.36-14.18,86.14-36.98,103.84-51.56,3.33-2.74,2.33-1.2,2.78-5.73-12.42-12.86-75.79-28.04-97.16-36.44,20.38-24.71,70.7-93.4,81.4-121.3,41.26-12.72,158.4-31.32,200.36-18.37,6.31,1.95,6.3,4.32,8.98,9.98,8.33,19.72,19.82,37.88,30.92,56.12-16.74-3.28-33.64-4.99-50.7-5.12-67.73-1.05-166.72,29.16-216.18,76.86,20.75-2.59,41.81-12.7,61.42-19.84,69.15-25.2,138.15-46.35,212.24-31.32,47.92,43.93,74.15,73.14,137.54,97.07,80.3,30.31,174.75,24.78,252.51-10.98,72.08-33.14,119.98-91.74,147.04-165.41,29.1-79.23,20.71-160.58-13.96-236.28,21.47-21.7,59.2-51.56,90.76-54,3.38-.26,9.21.11,12.07,2.16,8.69,6.24,21,39.5,28.61,50.22,21.92,30.9,48.66,56.7,77.47,81.05-22.81.58-42.69,9.38-60.49,23.36-12.08,9.49-25.82,24.27-27.18,40.42-.56,6.64,1.73,12.65,6.21,17.53,14.98,16.34,37.46,15.3,57.67,16.39,13.6,28.64,16,72.54,9.39,103.42-2.9,13.58-8.72,26.39-11.72,40.04l2.34,1.84c3.54-.17,4.52.44,7.38-1.96,16.81-14.16,22.01-52.95,24.46-73.19,11.94,6.84,22.62,11.12,36.58,10.61,10.91-.4,25.93-2.36,33.06-11.84,4.53-6.02,3.94-12.03,2.82-18.9l-2.63-.44c-5.26,4.75-10.88,10.04-17.34,13.13-7.41,3.55-15.41,2.42-22.77-.64-25.86-10.76-36.21-46.11-46.36-70,7.56-4.4,15.2-8.88,21.06-15.48,15.66-17.67,16.47-38.42,15.36-60.75,33.26,16.81,67.72,31.2,105.4,33.01,46.68,2.24,88.66-16.44,122.63-47.73,59.8-55.07,75.35-139.57,78.84-217.47Z"/>
  <path class="cls-7" d="M1449.02,1574.61l3.7.5c7.6,29.42,4.54,67.81,9.96,99.2-13.98-.18-25.82.3-38.89,5.91-34.33,14.74-73.41,57.68-83.23,93.99-6.76,25-1.82,60.79-1.23,86.81.98,48.97,3.1,97.89,6.38,146.76,3.27,48.87,7.69,97.63,13.24,146.3,5.55,48.66,12.25,97.17,20.07,145.52,7.83,48.35,16.78,96.49,26.86,144.42,8.51,40.07,19.07,79.59,31.66,118.56,5.89,18.44,13.37,36.54,18.66,55.14,1.36,4.77,3.41,8.62,1.44,13.33-6.38,2.1-14.44-.02-20.69-2.01-38.14-12.16-59.3-63.84-75.48-97.14-69.2-142.41-108.96-297.91-137.95-453.02-6.87-36.76-22.13-168.2-34.78-191.22l.52,1.2-3.01.58c-6.03,33.36.5,72.77,3.54,106.31,16.24,179.1,64.89,399.38,153.71,557.4-32.7,7.54-61.14,11.48-94.66,11.64.59-1.28,1.15-2.57,1.68-3.88,24.46-60.54,11.54-137.95-13.43-196.01-34.9-81.14-99.26-157.6-182.49-190.95-10.88-3.48-21.66-6.13-32.98-7.77-43.32-6.27-87.75,8.47-122.17,34.68-28.44,21.66-50.16,51.86-54.66,87.81-.89,7.09-2.78,18.63,1.76,24.39,6.13-5.75,8.38-17.5,11.6-25.24,13.78-33.03,35.94-64.06,68.17-80.94,2.15-1.14,4.33-2.22,6.53-3.25,2.21-1.03,4.44-2,6.69-2.92,2.25-.91,4.53-1.77,6.83-2.57,2.3-.8,4.61-1.54,6.95-2.23,2.33-.68,4.68-1.31,7.05-1.87,2.37-.57,4.74-1.07,7.14-1.51,2.39-.45,4.79-.83,7.2-1.15,2.41-.33,4.83-.59,7.26-.79,2.42-.2,4.85-.34,7.28-.42,2.43-.08,4.86-.1,7.3-.05,2.43.04,4.86.15,7.29.32,2.43.17,4.85.39,7.26.68,2.42.29,4.82.64,7.22,1.05,2.4.41,4.78.88,7.16,1.41,2.37.53,4.73,1.12,7.08,1.77,2.34.65,4.67,1.36,6.98,2.13,71.13,23.29,128.76,89.64,161.05,154.91,31.75,64.17,50.95,143.25,27.51,213.32-12.7,11.72-38.09,23.16-45.18,38.67l2.14,2.02c18.26-1.36,29.45-10.16,44.39-19.97,21.96.03,45.76.72,67.16,5.8,21.86,5.19,38.02,15.58,49.74,34.86-130.92,23.56-305.02,34.42-425.49-30.24-57.38-30.8-96.28-80.92-114.46-143.26-39.33-134.8,39.2-335.89,104.39-454.95,64.84-118.43,148.63-222.72,239.1-322.15,16.25-17.86,38.06-47.98,60.33-57.56,23.18-9.97,77.32-9.12,105.03-13.64,45.15-7.79,89.75-18.01,133.78-30.68Z"/>
  <path class="cls-7" d="M701.15,271.49c7.24,4.26,112.98,178.51,126.68,198.8,38.52,57.09,83.5,127.09,135.04,172.92-3.48,7.33-7.37,14.82-9.75,22.59-1.94,6.34-2.64,12.49.46,18.43l4.28-.03c21.9-13.39,48.83-58.59,66.94-80.02,25.95-30.71,52.75-61.34,80.87-90.11,24.24-24.8,50.9-46.23,78.53-67.06,74.35-56.04,155.48-101.83,251.04-102.83-11.72,18.19-24.93,35.5-40.69,50.41-29.74,28.12-140.97,108.3-154.26,134.91-1.88,3.76-.9,3.95.29,7.68,11.4,7.56,35.18-4.69,46.78-9.07,57.97-21.91,126.42-34.7,188.4-35.94,19.69-.39,65.89-1.86,81.14,12.8.84,2.9,1.7,4.09.75,7.14-1.92,6.21-7.26,11.92-12.74,15.32-36.17,22.49-123.16,41.48-167.84,57.34-22.68,8.04-43.99,17.59-64.59,30.04,8.82-.66,17.63-1.75,26.41-2.83,56.62-6.98,208.26-35.28,243.01-79.72,24.34,15.48,50.12,29.14,75.02,43.75-24.62,24.13-48.09,47.26-64.04,78.27-36.93,71.75-42.02,155.03-17.57,231.36-50.07,2.44-80.59,25.28-114,60.67-29.36-37.47-36.68-58.81-78.94-87.29-71.27-48.03-160.55-69.56-245.47-52.86-4.65.91-9.27,1.95-13.87,3.09-4.6,1.15-9.16,2.41-13.7,3.78-4.53,1.37-9.03,2.86-13.49,4.46-4.46,1.6-8.88,3.3-13.25,5.12-4.38,1.82-8.7,3.74-12.98,5.77-4.28,2.03-8.51,4.17-12.68,6.42s-8.29,4.59-12.34,7.03c-4.06,2.45-8.05,4.99-11.98,7.64-3.93,2.65-7.79,5.39-11.58,8.23-3.79,2.84-7.51,5.77-11.16,8.79-3.65,3.02-7.22,6.14-10.71,9.34-3.49,3.2-6.9,6.49-10.23,9.86-3.33,3.37-6.57,6.82-9.73,10.36-3.16,3.53-6.23,7.14-9.2,10.83-2.98,3.69-5.86,7.44-8.65,11.27-2.79,3.83-5.48,7.73-8.08,11.69-54.73,82.35-56.62,182.4-37.66,276.14-70.28-12.41-143.26.21-211.04,20.28-4.69-11.05-9.23-22.17-13.6-33.35-4.37-11.18-8.58-22.42-12.62-33.73-4.05-11.3-7.93-22.66-11.64-34.08-3.72-11.42-7.27-22.89-10.65-34.4-3.38-11.52-6.59-23.09-9.64-34.7-3.05-11.61-5.93-23.27-8.63-34.96-2.71-11.7-5.25-23.43-7.62-35.2-2.37-11.77-4.56-23.57-6.59-35.4-2.02-11.83-3.88-23.7-5.56-35.58-1.68-11.89-3.19-23.8-4.52-35.73-1.33-11.93-2.49-23.88-3.48-35.84-.99-11.97-1.8-23.94-2.44-35.93-.64-11.99-1.11-23.98-1.4-35.98-.29-12-.41-24.01-.36-36.01.06-12.01.29-24.01.7-36.01.41-12,.98-23.99,1.74-35.97,3.26-55.3,8.92-109.6,20.86-163.78,17.19-78.02,45.81-152.8,72.05-228.11Z"/>
  <path class="cls-4" d="M719.39,356.24c70.02,118.31,134.66,239.52,208.24,355.76,1.13,2.99,2.61,4.5,1.32,7.67-5.54,13.63-23.08,29.26-32.3,41.39-14.34,18.85-28.81,38.85-40.87,59.21-17.06,28.78-32.8,59.62-46.71,90.09-9.21,20.19-16.36,47.6-29.37,65.14-1.89.61-3.88,1.44-5.84,1.76,21.57-83.26,74.62-211.14,146.18-261.21-1.03-.1-2.07-.16-3.09-.31-33.37-4.87-113.9-164.02-129.04-194.14-17.5-34.81-40.28-91.32-62.93-120.65-2.46,2.58-2.8,7.46-3.64,10.94-4.62,68.81-11.79,137.06-11.27,206.13.45,60.02,7.41,118.39,14.36,177.84,8.96,55.4,23.4,109.75,38.33,163.78-15.29-12.15-41.22-131.32-46.05-156.73-20.16-109.22-22.6-284.88-.4-393.12-4.38-12.75,2.39-39.44,3.08-53.56Z"/>
  <path class="cls-2" d="M721.33,411.89c.85-3.48,1.18-8.36,3.64-10.94,22.65,29.33,45.43,85.84,62.93,120.65,15.14,30.12,95.67,189.27,129.04,194.14,1.02.15,2.06.21,3.09.31-71.56,50.07-124.61,177.95-146.18,261.21-5.7-4.69-8.03-11.1-11.1-17.62-14.94-54.03-29.37-108.39-38.33-163.78-6.95-59.45-13.91-117.82-14.36-177.84-.52-69.07,6.65-137.32,11.27-206.13Z"/>
  <text class="cls-6" transform="translate(5009.95 226.15)"><tspan class="cls-9" x="0" y="0">L</tspan><tspan x="5.5" y="0">o</tspan><tspan class="cls-10" x="12.08" y="0">r</tspan><tspan x="15.89" y="0">em ipsum</tspan></text>
  <g>
    <path class="cls-1" d="M2629.78,2529.71h-124.09c-25.07,0-44.19-9.4-57.33-28.2-9.42-14.41-14.11-29.76-14.11-46.05,0-4.41.93-13.35,2.81-26.79,1.88-13.49,14.11-26.48,36.67-39.02,10.03-5.01,20.68-7.52,31.96-7.52h119.4c39.46-1.9,72.51-16.32,99.16-43.24,26.65-26.97,39.97-59.86,39.97-98.72v-157.93c-10.03,24.46-27.74,43.1-53.13,55.94-25.39,12.86-49.05,19.27-70.96,19.27-48.88,0-93.7-11.91-134.44-35.72-21.31-11.88-40.43-26.62-57.33-44.17-53.29-52.64-79.92-116.57-79.92-191.77v-627.96c0-20.68,7.2-38.23,21.61-52.64,14.41-14.41,31.96-21.63,52.67-21.63s37.28,7.22,51.69,21.63c14.41,14.41,21.63,31.96,21.63,52.64v627.96c0,34.47,12.05,63.76,36.19,87.9,24.12,24.14,53.41,36.19,87.9,36.19s62.97-12.05,87.41-36.19c24.44-24.14,36.67-53.43,36.67-87.9v-627.96c0-13.79,3.44-26.62,10.33-38.55,15.04-23.81,36.02-35.72,63-35.72,20.66,0,38.21,7.22,52.62,21.63,14.41,14.41,21.63,31.96,21.63,52.64v982.35c0,52.02-12.53,99.34-37.6,141.96-27.57,49.49-66.43,87.72-116.57,114.69-38.86,20.66-81.47,31.64-127.85,32.89Z"/>
    <path class="cls-1" d="M3568.91,2156.52c-20.05,0-37.46-7.2-52.18-21.61-14.74-14.41-22.1-31.96-22.1-52.67v-285.78c-37.6,38.25-78.66,57.36-123.14,57.36s-85.88-10.03-124.09-30.08c-44.52-23.19-80.24-56.1-107.19-98.72-26.95-42.62-40.41-90.25-40.41-142.89v-325.26c0-20.66,7.2-38.21,21.61-52.62,14.41-14.41,31.96-21.63,52.67-21.63s37.28,7.22,51.69,21.63c14.41,14.41,21.63,31.96,21.63,52.62v325.26c0,34.49,12.05,63.78,36.19,87.9,24.12,24.14,53.41,36.19,87.9,36.19s62.81-12.05,86.95-36.19c24.12-24.12,36.19-53.41,36.19-87.9v-325.26c0-20.66,7.36-38.21,22.1-52.62,14.72-14.41,32.12-21.63,52.18-21.63s38.21,7.22,52.62,21.63c14.41,14.41,21.63,31.96,21.63,52.62v825.37c0,20.7-7.22,38.25-21.63,52.67-14.41,14.41-31.96,21.61-52.62,21.61Z"/>
    <path class="cls-1" d="M4271.12,2156.52h-168.26c-50.79,0-96.84-12.53-138.2-37.6-41.36-25.07-74.28-58.59-98.69-100.6-23.21-40.11-34.79-84.61-34.79-133.49v-424.91c0-75.81,26.62-140.82,79.89-195.04,53.27-54.22,119.07-81.63,197.44-82.26,74.55,3.76,136.6,30.41,186.13,79.89,53.25,52.64,79.89,116.57,79.89,191.77v176.73c0,62.67-22.1,116.1-66.27,160.3-44.19,44.19-97.6,66.27-160.27,66.27h-169.21v27.25c0,34.49,12.05,63.78,36.19,87.9,24.12,24.14,53.41,36.19,87.9,36.19h168.26c14.41,0,27.57,3.76,39.48,11.28,23.19,15.04,34.79,35.72,34.79,62.04,0,20.7-7.22,38.25-21.63,52.67-14.41,14.41-31.96,21.61-52.64,21.61ZM3974.06,1063.22c-20.05,0-37.3-7.2-51.71-21.61-14.41-14.41-21.61-31.96-21.61-52.64v-104.36c0-20.05,7.2-37.28,21.61-51.69,14.41-14.41,31.66-21.63,51.71-21.63s38.23,7.22,52.64,21.63c14.41,14.41,21.63,31.64,21.63,51.69v104.36c0,20.68-7.22,38.23-21.63,52.64-14.41,14.41-31.96,21.61-52.64,21.61ZM4130.11,1709.98c26.32,0,48.88-9.4,67.68-28.2,18.8-18.8,28.2-41.66,28.2-68.61v-158.88c0-34.45-11.77-63.44-35.26-86.95-23.49-23.49-53.11-35.88-88.83-37.14-35.1,1.25-64.41,14.27-87.9,39.02-23.49,24.77-35.23,54.38-35.23,88.83v251.94h151.34ZM4213.79,1063.22c-20.7,0-38.25-7.2-52.67-21.61-14.41-14.41-21.61-31.96-21.61-52.64v-104.36c0-20.05,7.2-37.28,21.61-51.69,14.41-14.41,31.96-21.63,52.67-21.63s38.21,7.22,52.62,21.63c14.41,14.41,21.63,31.64,21.63,51.69v104.36c0,20.68-7.22,38.23-21.63,52.64-14.41,14.41-31.96,21.61-52.62,21.61Z"/>
    <path class="cls-1" d="M5031.63,2156.52c-20.05,0-37.46-7.2-52.18-21.61-14.74-14.41-22.1-31.96-22.1-52.67v-449.35h-247.22v449.35c0,20.7-7.22,38.25-21.63,52.67-14.41,14.41-31.64,21.61-51.69,21.61s-38.25-7.2-52.67-21.61c-14.41-14.41-21.61-31.96-21.61-52.67v-825.37c0-20.66,7.2-38.21,21.61-52.62,14.41-14.41,31.96-21.63,52.67-21.63s37.28,7.22,51.69,21.63c14.41,14.41,21.63,31.96,21.63,52.62v228.45h247.22v-228.45c0-20.66,7.36-38.21,22.1-52.62,14.72-14.41,32.12-21.63,52.18-21.63s38.21,7.22,52.62,21.63c14.41,14.41,21.63,31.96,21.63,52.62v825.37c0,20.7-7.22,38.25-21.63,52.67-14.41,14.41-31.96,21.61-52.62,21.61Z"/>
    <path class="cls-1" d="M5565.59,2156.52h-197.41c-20.7,0-38.25-7.2-52.67-21.61-14.41-14.41-21.61-31.96-21.61-52.67v-825.37c0-20.66,7.2-38.21,21.61-52.62,14.41-14.41,31.96-21.63,52.67-21.63s37.28,7.22,51.69,21.63c14.41,14.41,21.63,31.96,21.63,52.62v285.78c16.29-22.56,35.4-37.74,57.33-45.59,21.93-7.82,44.19-11.74,66.76-11.74,75.2,0,139.27,26.48,192.24,79.43,52.94,52.97,79.43,117.03,79.43,192.24v127.85c0,52.64-13.49,100.27-40.43,142.89-26.95,42.62-62.97,75.53-108.09,98.72-37.6,20.05-78.66,30.08-123.14,30.08ZM5565.59,2008.92c33.84,0,62.81-12.05,86.95-36.19,24.12-24.12,36.19-53.41,36.19-87.9v-127.85c0-33.84-12.07-62.97-36.19-87.41-24.14-24.44-53.11-36.67-86.95-36.67s-63.78,12.23-87.9,36.67c-24.14,24.44-36.19,53.57-36.19,87.41v251.94h124.09ZM6013.98,2156.52c-20.68,0-38.23-7.2-52.64-21.61-14.41-14.41-21.61-31.96-21.61-52.67v-825.37c0-20.66,7.2-38.21,21.61-52.62,14.41-14.41,31.96-21.63,52.64-21.63s37.28,7.22,51.69,21.63c14.41,14.41,21.63,31.96,21.63,52.62v825.37c0,20.7-7.22,38.25-21.63,52.67-14.41,14.41-31.64,21.61-51.69,21.61Z"/>
    <path class="cls-1" d="M6744.42,2156.52c-13.18,0-28.22-5.78-45.15-17.39-16.92-11.61-26-26.81-27.25-45.61-34.47,42.01-76.13,63-125.02,63s-93.87-11.91-134.9-35.72c-41.06-23.81-74.11-56.4-99.18-97.77-25.07-41.36-37.6-87.41-37.6-138.2v-627.96c0-20.66,7.2-38.21,21.61-52.62,14.41-14.41,31.96-21.63,52.67-21.63,27.57,0,48.56,11.91,62.97,35.72,6.89,11.28,10.35,24.14,10.35,38.53v627.96c0,34.49,12.05,63.78,36.19,87.9,24.12,24.14,53.41,36.19,87.9,36.19s62.81-12.05,86.95-36.19,36.19-53.41,36.19-87.9v-627.96c0-14.39,3.76-27.25,11.28-38.53,15.04-23.81,36.02-35.72,63-35.72,20.66,0,38.21,7.22,52.62,21.63,14.41,14.41,21.63,31.96,21.63,52.62v825.37c0,20.7-7.22,38.25-21.63,52.67-14.41,14.41-31.96,21.61-52.62,21.61ZM6628.78,1014.34h-163.57c-20.05,0-37.3-7.2-51.71-21.61-14.41-14.41-21.61-31.96-21.61-52.64s7.2-37.28,21.61-51.69c14.41-14.41,31.66-21.63,51.71-21.63h163.57c20.05,0,37.28,7.22,51.69,21.63,14.41,14.41,21.63,31.64,21.63,51.69s-7.22,38.23-21.63,52.64c-14.41,14.41-31.64,21.61-51.69,21.61Z"/>
    <path class="cls-1" d="M7080.96,2156.52c-20.7,0-38.25-7.2-52.67-21.61-14.41-14.41-21.61-31.96-21.61-52.67v-826.3c0-20.05,7.2-37.28,21.61-51.69,14.41-14.41,31.96-21.63,52.67-21.63s37.28,7.22,51.69,21.63c14.41,14.41,21.63,31.64,21.63,51.69v229.37h109.05l94.93-254.77c15.04-31.34,37.28-47,66.76-47,8.77,0,18.17,1.25,28.2,3.76,15.04,5.66,26.79,14.9,35.23,27.74,8.45,12.86,12.7,26.79,12.7,41.83,0,8.17-1.58,16.62-4.69,25.39l-102.48,277.3,184.25,497.3c2.51,10.03,3.76,19.13,3.76,27.25,0,29.48-15.67,52.04-47,67.68-10.03,2.51-19.13,3.76-27.25,3.76-30.08,0-52.64-15.97-67.68-47.93l-176.73-474.74h-109.05v449.35c0,20.7-7.22,38.25-21.63,52.67-14.41,14.41-31.64,21.61-51.69,21.61Z"/>
    <path class="cls-1" d="M7985.29,2156.52c-75.2,0-139.29-26.46-192.26-79.43-52.97-52.97-79.43-117.05-79.43-192.26v-430.55c0-75.2,26.46-139.27,79.43-192.24,52.97-52.94,117.05-79.43,192.26-79.43s138.48,26.48,191.75,79.43c53.27,52.97,79.92,117.03,79.92,192.24v430.55c0,75.2-26.65,139.29-79.92,192.26-53.27,52.97-117.19,79.43-191.75,79.43ZM7985.29,2008.92c33.84,0,62.81-12.05,86.95-36.19,24.12-24.12,36.19-53.41,36.19-87.9v-430.55c0-34.45-12.07-63.74-36.19-87.88-24.14-24.14-53.11-36.21-86.95-36.21s-63.78,12.07-87.9,36.21c-24.14,24.14-36.19,53.43-36.19,87.88v430.55c0,34.49,12.05,63.78,36.19,87.9,24.12,24.14,53.41,36.19,87.9,36.19Z"/>
    <path class="cls-1" d="M8679.05,2156.52c-20.7,0-38.25-7.2-52.67-21.61-14.41-14.41-21.61-31.96-21.61-52.67v-752.04h-123.14c-20.7,0-38.23-7.2-52.67-21.61-14.39-14.41-21.61-31.66-21.61-51.71s7.22-38.21,21.61-52.62c14.44-14.41,31.96-21.63,52.67-21.63h394.82c20.66,0,38.21,7.22,52.62,21.63,14.41,14.41,21.63,31.96,21.63,52.62s-7.22,37.3-21.63,51.71c-14.41,14.41-31.96,21.61-52.62,21.61h-124.09v752.04c0,20.7-7.22,38.25-21.63,52.67-14.41,14.41-31.64,21.61-51.69,21.61Z"/>
    <path class="cls-1" d="M9184.8,2156.52c-20.7,0-38.25-7.2-52.67-21.61-14.41-14.41-21.61-31.96-21.61-52.67v-103.41c0-20.66,7.2-38.21,21.61-52.62,14.41-14.41,31.96-21.63,52.67-21.63s37.28,7.22,51.69,21.63c14.41,14.41,21.63,31.96,21.63,52.62v103.41c0,20.7-7.22,38.25-21.63,52.67-14.41,14.41-31.64,21.61-51.69,21.61Z"/>
    <path class="cls-1" d="M9520.4,2529.71c-20.7,0-38.25-7.22-52.67-21.61-14.41-14.44-21.61-31.99-21.61-52.64v-1198.58c0-20.05,7.2-37.28,21.61-51.69,14.41-14.41,31.96-21.63,52.67-21.63,13.14,0,28.02,5.18,44.64,15.53,16.62,10.35,25.86,26.16,27.74,47.47,34.47-41.99,76.16-63,125.04-63s96.02,12.39,137.71,37.14c41.66,24.77,74.42,58.14,98.23,100.11,23.81,40.76,35.72,85.56,35.72,134.44v430.55c0,74.58-26.65,138.5-79.92,191.77-53.27,53.27-117.19,79.89-191.75,79.89-22.56,0-45.75-5.15-69.56-15.51-23.81-10.33-41.99-24.28-54.52-41.83v355.34c0,20.66-7.22,38.21-21.63,52.64-14.41,14.39-31.64,21.61-51.69,21.61ZM9717.81,2008.92c33.84,0,62.81-12.05,86.95-36.19,24.12-24.12,36.19-53.11,36.19-86.95v-430.55c0-34.47-12.07-63.76-36.19-87.9-24.14-24.12-53.11-36.19-86.95-36.19s-63.78,12.07-87.9,36.19c-24.14,24.14-36.19,53.43-36.19,87.9v430.55c0,33.84,12.05,62.83,36.19,86.95,24.12,24.14,53.41,36.19,87.9,36.19Z"/>
    <path class="cls-1" d="M10522.5,2529.71c-20.05,0-37.3-7.22-51.71-21.61-14.41-14.44-21.61-31.99-21.61-52.64v-298.01c-75.2,0-139.29-26.62-192.26-79.89-52.97-53.27-79.43-117.19-79.43-191.77v-433.38c0-75.2,26.46-139.27,79.43-192.24,52.97-52.94,117.05-79.43,192.26-79.43v-74.28c0-20.05,7.2-37.28,21.61-51.69,14.41-14.41,31.66-21.63,51.71-21.63s38.21,7.22,52.62,21.63c14.41,14.41,21.63,31.64,21.63,51.69v74.28c77.08,1.88,141.01,28.5,191.77,79.89,53.27,52.64,79.92,116.57,79.92,191.77v433.38c0,74.58-26.02,137.87-78.04,189.89-52.02,52.02-116.57,79.27-193.65,81.77v298.01c0,20.66-7.22,38.21-21.63,52.64-14.41,14.39-31.96,21.61-52.62,21.61ZM10449.18,2008.92v-673.08c-34.49,0-63.78,12.07-87.9,36.21-24.14,24.14-36.19,53.11-36.19,86.95v426.79c0,33.84,12.05,62.83,36.19,86.95,24.12,24.14,53.41,36.19,87.9,36.19ZM10596.76,2008.92c35.1-.6,64.55-12.84,88.37-36.65,23.81-23.81,35.72-52.64,35.72-86.49v-426.79c0-33.84-11.91-62.67-35.72-86.49-23.81-23.81-53.27-36.02-88.37-36.67v673.08Z"/>
  </g>
</svg>